<mxfile host="65bd71144e">
    <diagram id="q-2XtLO3WcbkFXjP2GlR" name="第 1 页">
        <mxGraphModel dx="917" dy="801" grid="1" gridSize="10" guides="1" tooltips="1" connect="1" arrows="1" fold="1" page="1" pageScale="1" pageWidth="1169" pageHeight="827" math="0" shadow="0">
            <root>
                <mxCell id="0"/>
                <mxCell id="1" parent="0"/>
                <mxCell id="2" value="&lt;p style=&quot;margin-top: 0px; margin-bottom: 16px; font-family: -apple-system, &amp;quot;system-ui&amp;quot;, &amp;quot;Segoe WPC&amp;quot;, &amp;quot;Segoe UI&amp;quot;, system-ui, Ubuntu, &amp;quot;Droid Sans&amp;quot;, sans-serif; font-size: 14px;&quot;&gt;恶魔们抓住了公主并将她关在了地下城&amp;nbsp;&lt;code style=&quot;font-family: var(--vscode-editor-font-family, &amp;quot;SF Mono&amp;quot;, Monaco, Menlo, Consolas, &amp;quot;Ubuntu Mono&amp;quot;, &amp;quot;Liberation Mono&amp;quot;, &amp;quot;DejaVu Sans Mono&amp;quot;, &amp;quot;Courier New&amp;quot;, monospace); font-size: 1em; line-height: 1.357em;&quot;&gt;dungeon&lt;/code&gt;&amp;nbsp;的&amp;nbsp;&lt;strong style=&quot;&quot;&gt;右下角&lt;/strong&gt;&amp;nbsp;。地下城是由&amp;nbsp;&lt;code style=&quot;font-family: var(--vscode-editor-font-family, &amp;quot;SF Mono&amp;quot;, Monaco, Menlo, Consolas, &amp;quot;Ubuntu Mono&amp;quot;, &amp;quot;Liberation Mono&amp;quot;, &amp;quot;DejaVu Sans Mono&amp;quot;, &amp;quot;Courier New&amp;quot;, monospace); font-size: 1em; line-height: 1.357em;&quot;&gt;m x n&lt;/code&gt;&amp;nbsp;个房间组成的二维网格。我们英勇的骑士最初被安置在&amp;nbsp;&lt;strong style=&quot;&quot;&gt;左上角&lt;/strong&gt;&amp;nbsp;的房间里，他必须穿过地下城并通过对抗恶魔来拯救公主。&lt;/p&gt;&lt;p style=&quot;margin-top: 0px; margin-bottom: 16px; font-family: -apple-system, &amp;quot;system-ui&amp;quot;, &amp;quot;Segoe WPC&amp;quot;, &amp;quot;Segoe UI&amp;quot;, system-ui, Ubuntu, &amp;quot;Droid Sans&amp;quot;, sans-serif; font-size: 14px;&quot;&gt;骑士的初始健康点数为一个正整数。如果他的健康点数在某一时刻降至 0 或以下，他会立即死亡。&lt;/p&gt;&lt;p style=&quot;margin-top: 0px; margin-bottom: 16px; font-family: -apple-system, &amp;quot;system-ui&amp;quot;, &amp;quot;Segoe WPC&amp;quot;, &amp;quot;Segoe UI&amp;quot;, system-ui, Ubuntu, &amp;quot;Droid Sans&amp;quot;, sans-serif; font-size: 14px;&quot;&gt;有些房间由恶魔守卫，因此骑士在进入这些房间时会失去健康点数（若房间里的值为&lt;em&gt;负整数&lt;/em&gt;，则表示骑士将损失健康点数）；其他房间要么是空的（房间里的值为&amp;nbsp;&lt;em&gt;0&lt;/em&gt;），要么包含增加骑士健康点数的魔法球（若房间里的值为&lt;em&gt;正整数&lt;/em&gt;，则表示骑士将增加健康点数）。&lt;/p&gt;&lt;p style=&quot;margin-top: 0px; margin-bottom: 16px; font-family: -apple-system, &amp;quot;system-ui&amp;quot;, &amp;quot;Segoe WPC&amp;quot;, &amp;quot;Segoe UI&amp;quot;, system-ui, Ubuntu, &amp;quot;Droid Sans&amp;quot;, sans-serif; font-size: 14px;&quot;&gt;为了尽快解救公主，骑士决定每次只&amp;nbsp;&lt;strong&gt;向右&lt;/strong&gt;&amp;nbsp;或&amp;nbsp;&lt;strong&gt;向下&lt;/strong&gt;&amp;nbsp;移动一步。&lt;/p&gt;&lt;p style=&quot;margin-top: 0px; margin-bottom: 16px; font-family: -apple-system, &amp;quot;system-ui&amp;quot;, &amp;quot;Segoe WPC&amp;quot;, &amp;quot;Segoe UI&amp;quot;, system-ui, Ubuntu, &amp;quot;Droid Sans&amp;quot;, sans-serif; font-size: 14px;&quot;&gt;返回确保骑士能够拯救到公主所需的最低初始健康点数。&lt;/p&gt;&lt;p style=&quot;margin-top: 0px; margin-bottom: 16px; font-family: -apple-system, &amp;quot;system-ui&amp;quot;, &amp;quot;Segoe WPC&amp;quot;, &amp;quot;Segoe UI&amp;quot;, system-ui, Ubuntu, &amp;quot;Droid Sans&amp;quot;, sans-serif; font-size: 14px;&quot;&gt;&lt;strong style=&quot;&quot;&gt;注意：&lt;/strong&gt;任何房间都可能对骑士的健康点数造成威胁，也可能增加骑士的健康点数，包括骑士进入的左上角房间以及公主被监禁的右下角房间。&lt;/p&gt;" style="rounded=1;whiteSpace=wrap;html=1;align=left;" parent="1" vertex="1">
                    <mxGeometry width="1270" height="290" as="geometry"/>
                </mxCell>
                <mxCell id="31" value="-2" style="whiteSpace=wrap;html=1;aspect=fixed;" parent="1" vertex="1">
                    <mxGeometry y="310" width="40" height="40" as="geometry"/>
                </mxCell>
                <mxCell id="32" value="-3" style="whiteSpace=wrap;html=1;aspect=fixed;" parent="1" vertex="1">
                    <mxGeometry x="40" y="310" width="40" height="40" as="geometry"/>
                </mxCell>
                <mxCell id="33" value="3" style="whiteSpace=wrap;html=1;aspect=fixed;" parent="1" vertex="1">
                    <mxGeometry x="80" y="310" width="40" height="40" as="geometry"/>
                </mxCell>
                <mxCell id="34" value="-5" style="whiteSpace=wrap;html=1;aspect=fixed;" parent="1" vertex="1">
                    <mxGeometry y="350" width="40" height="40" as="geometry"/>
                </mxCell>
                <mxCell id="35" value="-10" style="whiteSpace=wrap;html=1;aspect=fixed;" parent="1" vertex="1">
                    <mxGeometry x="40" y="350" width="40" height="40" as="geometry"/>
                </mxCell>
                <mxCell id="36" value="1" style="whiteSpace=wrap;html=1;aspect=fixed;" parent="1" vertex="1">
                    <mxGeometry x="80" y="350" width="40" height="40" as="geometry"/>
                </mxCell>
                <mxCell id="37" value="10" style="whiteSpace=wrap;html=1;aspect=fixed;" parent="1" vertex="1">
                    <mxGeometry y="390" width="40" height="40" as="geometry"/>
                </mxCell>
                <mxCell id="38" value="30" style="whiteSpace=wrap;html=1;aspect=fixed;" parent="1" vertex="1">
                    <mxGeometry x="40" y="390" width="40" height="40" as="geometry"/>
                </mxCell>
                <mxCell id="39" value="-5" style="whiteSpace=wrap;html=1;aspect=fixed;" parent="1" vertex="1">
                    <mxGeometry x="80" y="390" width="40" height="40" as="geometry"/>
                </mxCell>
            </root>
        </mxGraphModel>
    </diagram>
</mxfile>